<svg width="150" height="150" viewBox="0 0 150 150" fill="none" xmlns="http://www.w3.org/2000/svg">
<rect width="150" height="150" rx="12" fill="#B551E4"/>
<path d="M94.8271 84.1121H15.2071C11.2692 84.1121 8.0769 87.2971 8.0769 91.226V111.382C8.0769 115.311 11.2692 118.496 15.2071 118.496H94.8271C98.765 118.496 101.957 115.311 101.957 111.382V91.226C101.957 87.2971 98.765 84.1121 94.8271 84.1121Z" fill="#FDFDFD"/>
<path d="M45.4672 96.1959C46.6002 96.1959 47.6119 96.7611 48.5021 97.8916C49.4733 98.9413 49.9589 100.354 49.9589 102.131C49.9589 104.311 48.7449 106.168 46.317 107.702C43.97 109.156 41.2992 109.883 38.3048 109.883C33.287 109.883 29.0381 108.833 25.5581 106.733C22.159 104.553 20.4594 99.991 20.4594 93.0467V59.6173H14.8751C12.9328 59.6173 11.3142 58.9713 10.0193 57.6794C8.72435 56.3874 8.0769 54.7724 8.0769 52.8345C8.0769 50.9773 8.72435 49.4431 10.0193 48.2319C11.3142 46.9399 12.9328 46.294 14.8751 46.294H20.4594V38.5422C20.4594 36.4428 21.1473 34.7067 22.5232 33.334C23.9799 31.8805 25.7604 31.1538 27.8646 31.1538C29.8879 31.1538 31.5875 31.8805 32.9633 33.334C34.3391 34.7067 35.027 36.4428 35.027 38.5422V46.294H43.6462C45.5886 46.294 47.2072 46.9399 48.5021 48.2319C49.797 49.5239 50.4445 51.1388 50.4445 53.0767C50.4445 54.9339 49.797 56.5085 48.5021 57.8005C47.2072 59.0117 45.5886 59.6173 43.6462 59.6173H35.027V92.4411C35.027 94.1368 35.4722 95.3884 36.3624 96.1959C37.2527 96.9226 38.4666 97.286 40.0043 97.286C40.6518 97.286 41.542 97.1245 42.6751 96.8015C43.6462 96.3978 44.5769 96.1959 45.4672 96.1959ZM135.773 45.0827C137.715 45.0827 139.334 45.8095 140.629 47.2629C142.004 48.6356 142.692 50.4121 142.692 52.5923C142.692 53.319 142.53 54.2476 142.207 55.3781L123.633 105.28C123.147 106.733 122.257 107.904 120.962 108.793C119.748 109.6 118.413 110.004 116.956 110.004L115.985 109.883C113.233 109.721 111.17 108.187 109.794 105.28L99.475 75.4842L89.6418 105.28C88.266 108.187 86.2022 109.721 83.4505 109.883L82.4794 110.004C81.0226 110.004 79.6468 109.6 78.3519 108.793C77.1379 107.904 76.2881 106.733 75.8025 105.28L57.2288 55.3781C56.9051 54.4898 56.7432 53.5612 56.7432 52.5923C56.7432 50.5736 57.3906 48.8375 58.6855 47.384C60.0614 45.8498 61.8419 45.0827 64.027 45.0827C65.6456 45.0827 67.0215 45.4865 68.1545 46.294C69.3685 47.0207 70.2183 48.1512 70.7039 49.6854L83.8147 85.1739L93.4051 59.2539C94.7 56.2663 96.9256 54.7724 100.082 54.7724C101.781 54.7724 103.076 55.1358 103.967 55.8625C104.938 56.5893 105.747 57.7197 106.395 59.2539L115.742 84.5683L128.732 49.6854C129.217 48.1512 130.067 47.0207 131.281 46.294C132.495 45.4865 133.992 45.0827 135.773 45.0827Z" fill="#FDD154"/>
</svg>
