<svg width="150" height="150" viewBox="0 0 150 150" fill="none" xmlns="http://www.w3.org/2000/svg">
<path d="M94.1177 84.1863H15.583C11.6988 84.1863 8.54999 87.3279 8.54999 91.2033V111.085C8.54999 114.96 11.6988 118.102 15.583 118.102H94.1177C98.0019 118.102 101.151 114.96 101.151 111.085V91.2033C101.151 87.3279 98.0019 84.1863 94.1177 84.1863Z" fill="#FDD154"/>
<path d="M45.4306 96.1055C46.5482 96.1055 47.5461 96.663 48.4242 97.778C49.3821 98.8135 49.8611 100.207 49.8611 101.96C49.8611 104.11 48.6636 105.942 46.2688 107.455C43.9538 108.889 41.3195 109.606 38.3658 109.606C33.4165 109.606 29.2255 108.57 25.7929 106.499C22.4401 104.349 20.7637 99.8489 20.7637 92.9992V60.0255H15.2556C13.3397 60.0255 11.7431 59.3883 10.4659 58.1139C9.18861 56.8396 8.54999 55.2466 8.54999 53.3351C8.54999 51.5032 9.18861 49.99 10.4659 48.7953C11.7431 47.5209 13.3397 46.8837 15.2556 46.8837H20.7637V39.2376C20.7637 37.1668 21.4422 35.4544 22.7993 34.1004C24.2362 32.6668 25.9924 31.95 28.068 31.95C30.0637 31.95 31.7401 32.6668 33.0972 34.1004C34.4542 35.4544 35.1328 37.1668 35.1328 39.2376V46.8837H43.6345C45.5503 46.8837 47.1469 47.5209 48.4242 48.7953C49.7014 50.0696 50.34 51.6625 50.34 53.5741C50.34 55.4059 49.7014 56.9591 48.4242 58.2334C47.1469 59.4281 45.5503 60.0255 43.6345 60.0255H35.1328V92.4019C35.1328 94.0745 35.5718 95.309 36.4499 96.1055C37.328 96.8223 38.5255 97.1807 40.0422 97.1807C40.6808 97.1807 41.5589 97.0214 42.6765 96.7028C43.6345 96.3046 44.5525 96.1055 45.4306 96.1055ZM134.505 45.689C136.421 45.689 138.018 46.4058 139.295 47.8395C140.652 49.1935 141.33 50.9457 141.33 53.0962C141.33 53.813 141.171 54.7289 140.851 55.844L122.531 105.066C122.052 106.499 121.174 107.654 119.897 108.53C118.699 109.327 117.382 109.725 115.945 109.725L114.987 109.606C112.273 109.446 110.237 107.933 108.88 105.066L98.7022 75.6761L89.0031 105.066C87.646 107.933 85.6104 109.446 82.8962 109.606L81.9383 109.725C80.5014 109.725 79.1443 109.327 77.867 108.53C76.6696 107.654 75.8314 106.499 75.3524 105.066L57.0319 55.844C56.7126 54.9679 56.5529 54.0519 56.5529 53.0962C56.5529 51.105 57.1915 49.3926 58.4688 47.959C59.8259 46.4457 61.5821 45.689 63.7374 45.689C65.334 45.689 66.6911 46.0873 67.8087 46.8837C69.0061 47.6006 69.8443 48.7156 70.3233 50.2289L83.2554 85.2337L92.7151 59.667C93.9923 56.7201 96.1876 55.2466 99.3009 55.2466C100.977 55.2466 102.255 55.6051 103.133 56.3219C104.091 57.0387 104.889 58.1538 105.527 59.667L114.748 84.6363L127.56 50.2289C128.039 48.7156 128.877 47.6006 130.075 46.8837C131.272 46.0873 132.749 45.689 134.505 45.689Z" fill="#B551E4"/>
</svg>
