<svg width="303" height="79" viewBox="0 0 303 79" fill="none" xmlns="http://www.w3.org/2000/svg">
<rect x="16.0643" y="38" width="138" height="29" rx="6" fill="#FDFDFD"/>
<path d="M40.225 51.525C40.925 51.525 41.55 51.875 42.1 52.575C42.7 53.225 43 54.1 43 55.2C43 56.55 42.25 57.7 40.75 58.65C39.3 59.55 37.65 60 35.8 60C32.7 60 30.075 59.35 27.925 58.05C25.825 56.7 24.775 53.875 24.775 49.575V28.875H21.325C20.125 28.875 19.125 28.475 18.325 27.675C17.525 26.875 17.125 25.875 17.125 24.675C17.125 23.525 17.525 22.575 18.325 21.825C19.125 21.025 20.125 20.625 21.325 20.625H24.775V15.825C24.775 14.525 25.2 13.45 26.05 12.6C26.95 11.7 28.05 11.25 29.35 11.25C30.6 11.25 31.65 11.7 32.5 12.6C33.35 13.45 33.775 14.525 33.775 15.825V20.625H39.1C40.3 20.625 41.3 21.025 42.1 21.825C42.9 22.625 43.3 23.625 43.3 24.825C43.3 25.975 42.9 26.95 42.1 27.75C41.3 28.5 40.3 28.875 39.1 28.875H33.775V49.2C33.775 50.25 34.05 51.025 34.6 51.525C35.15 51.975 35.9 52.2 36.85 52.2C37.25 52.2 37.8 52.1 38.5 51.9C39.1 51.65 39.675 51.525 40.225 51.525ZM96.0164 19.875C97.2164 19.875 98.2164 20.325 99.0164 21.225C99.8664 22.075 100.291 23.175 100.291 24.525C100.291 24.975 100.191 25.55 99.9914 26.25L88.5164 57.15C88.2164 58.05 87.6664 58.775 86.8664 59.325C86.1164 59.825 85.2914 60.075 84.3914 60.075L83.7914 60C82.0914 59.9 80.8164 58.95 79.9664 57.15L73.5914 38.7L67.5164 57.15C66.6664 58.95 65.3914 59.9 63.6914 60L63.0914 60.075C62.1914 60.075 61.3414 59.825 60.5414 59.325C59.7914 58.775 59.2664 58.05 58.9664 57.15L47.4914 26.25C47.2914 25.7 47.1914 25.125 47.1914 24.525C47.1914 23.275 47.5914 22.2 48.3914 21.3C49.2414 20.35 50.3414 19.875 51.6914 19.875C52.6914 19.875 53.5414 20.125 54.2414 20.625C54.9914 21.075 55.5164 21.775 55.8164 22.725L63.9164 44.7L69.8414 28.65C70.6414 26.8 72.0164 25.875 73.9664 25.875C75.0164 25.875 75.8164 26.1 76.3664 26.55C76.9664 27 77.4664 27.7 77.8664 28.65L83.6414 44.325L91.6664 22.725C91.9664 21.775 92.4914 21.075 93.2414 20.625C93.9914 20.125 94.9164 19.875 96.0164 19.875ZM111.11 55.425C111.11 56.725 110.685 57.825 109.835 58.725C108.985 59.575 107.91 60 106.61 60C105.31 60 104.235 59.575 103.385 58.725C102.535 57.825 102.11 56.725 102.11 55.425V24.45C102.11 23.15 102.535 22.075 103.385 21.225C104.235 20.325 105.31 19.875 106.61 19.875C107.91 19.875 108.985 20.325 109.835 21.225C110.685 22.075 111.11 23.15 111.11 24.45V55.425ZM106.535 15C104.835 15 103.635 14.725 102.935 14.175C102.235 13.625 101.885 12.65 101.885 11.25V9.825C101.885 8.425 102.26 7.45 103.01 6.9C103.76 6.35 104.96 6.075 106.61 6.075C108.36 6.075 109.585 6.35 110.285 6.9C110.985 7.45 111.335 8.425 111.335 9.825V11.25C111.335 12.7 110.96 13.7 110.21 14.25C109.51 14.75 108.285 15 106.535 15ZM137.059 19.125C142.159 19.125 145.684 20.65 147.634 23.7C149.584 26.7 150.559 30.875 150.559 36.225V55.425C150.559 56.725 150.134 57.825 149.284 58.725C148.434 59.575 147.359 60 146.059 60C144.759 60 143.684 59.575 142.834 58.725C141.984 57.825 141.559 56.725 141.559 55.425V36.225C141.559 33.475 140.984 31.325 139.834 29.775C138.684 28.175 136.709 27.375 133.909 27.375C131.009 27.375 128.734 28.225 127.084 29.925C125.434 31.575 124.609 33.675 124.609 36.225V55.425C124.609 56.725 124.184 57.825 123.334 58.725C122.484 59.575 121.409 60 120.109 60C118.809 60 117.734 59.575 116.884 58.725C116.034 57.825 115.609 56.725 115.609 55.425V24.45C115.609 23.15 116.034 22.075 116.884 21.225C117.734 20.325 118.809 19.875 120.109 19.875C121.409 19.875 122.484 20.325 123.334 21.225C124.184 22.075 124.609 23.15 124.609 24.45V25.725C125.959 23.925 127.709 22.375 129.859 21.075C132.059 19.775 134.459 19.125 137.059 19.125ZM188.912 52.125C189.862 53.125 190.337 54.25 190.337 55.5C190.337 56.75 189.837 57.8 188.837 58.65C187.887 59.5 186.862 59.925 185.762 59.925C184.462 59.925 183.362 59.425 182.462 58.425L168.962 44.175L165.287 47.55V55.425C165.287 56.725 164.862 57.825 164.012 58.725C163.162 59.575 162.087 60 160.787 60C159.487 60 158.412 59.575 157.562 58.725C156.712 57.825 156.287 56.725 156.287 55.425V9.075C156.287 7.775 156.712 6.7 157.562 5.85C158.412 4.95 159.487 4.5 160.787 4.5C162.087 4.5 163.162 4.95 164.012 5.85C164.862 6.7 165.287 7.775 165.287 9.075V36.825L181.337 21.3C182.287 20.35 183.387 19.875 184.637 19.875C185.737 19.875 186.712 20.35 187.562 21.3C188.462 22.2 188.912 23.125 188.912 24.075C188.912 25.275 188.312 26.4 187.112 27.45L175.787 37.875L188.912 52.125ZM202.871 55.425C202.871 56.725 202.421 57.825 201.521 58.725C200.671 59.575 199.596 60 198.296 60C197.046 60 195.996 59.575 195.146 58.725C194.296 57.825 193.871 56.725 193.871 55.425V9.075C193.871 7.775 194.296 6.7 195.146 5.85C196.046 4.95 197.146 4.5 198.446 4.5C199.696 4.5 200.746 4.95 201.596 5.85C202.446 6.7 202.871 7.775 202.871 9.075V55.425ZM243.854 39C243.804 40.2 243.329 41.175 242.429 41.925C241.529 42.675 240.479 43.05 239.279 43.05H214.529C215.129 46 216.504 48.325 218.654 50.025C220.804 51.675 223.229 52.5 225.929 52.5C227.979 52.5 229.579 52.325 230.729 51.975C231.879 51.575 232.779 51.175 233.429 50.775C234.129 50.325 234.604 50.025 234.854 49.875C235.754 49.425 236.604 49.2 237.404 49.2C238.454 49.2 239.354 49.575 240.104 50.325C240.854 51.075 241.229 51.95 241.229 52.95C241.229 54.3 240.529 55.525 239.129 56.625C237.729 57.775 235.854 58.75 233.504 59.55C231.154 60.35 228.779 60.75 226.379 60.75C222.179 60.75 218.504 59.875 215.354 58.125C212.254 56.375 209.854 53.975 208.154 50.925C206.454 47.825 205.604 44.35 205.604 40.5C205.604 36.2 206.504 32.425 208.304 29.175C210.104 25.925 212.479 23.45 215.429 21.75C218.379 20 221.529 19.125 224.879 19.125C228.179 19.125 231.279 20.025 234.179 21.825C237.129 23.625 239.479 26.05 241.229 29.1C242.979 32.15 243.854 35.45 243.854 39ZM224.879 27.375C219.079 27.375 215.654 30.1 214.604 35.55H234.254V35.025C234.054 32.925 233.029 31.125 231.179 29.625C229.329 28.125 227.229 27.375 224.879 27.375ZM244.284 53.775C243.834 53.175 243.609 52.425 243.609 51.525C243.609 50.225 244.259 49.125 245.559 48.225C246.259 47.775 246.984 47.55 247.734 47.55C248.784 47.55 249.784 48.025 250.734 48.975C252.234 50.525 253.784 51.675 255.384 52.425C257.034 53.175 259.009 53.55 261.309 53.55C265.209 53.4 267.159 51.925 267.159 49.125C267.159 47.675 266.484 46.575 265.134 45.825C263.834 45.075 261.784 44.325 258.984 43.575C256.084 42.775 253.709 41.975 251.859 41.175C250.059 40.375 248.484 39.175 247.134 37.575C245.834 35.925 245.184 33.725 245.184 30.975C245.184 28.575 245.859 26.5 247.209 24.75C248.609 22.95 250.409 21.575 252.609 20.625C254.859 19.625 257.234 19.125 259.734 19.125C262.284 19.125 264.834 19.6 267.384 20.55C269.934 21.5 271.934 22.9 273.384 24.75C274.034 25.55 274.359 26.45 274.359 27.45C274.359 28.6 273.884 29.55 272.934 30.3C272.234 30.85 271.434 31.125 270.534 31.125C269.434 31.125 268.534 30.775 267.834 30.075C266.934 28.975 265.759 28.1 264.309 27.45C262.909 26.8 261.309 26.475 259.509 26.475C255.709 26.475 253.809 27.85 253.809 30.6C253.809 31.7 254.159 32.6 254.859 33.3C255.559 33.95 256.434 34.475 257.484 34.875C258.584 35.225 260.109 35.675 262.059 36.225C264.759 36.975 267.009 37.75 268.809 38.55C270.609 39.35 272.134 40.575 273.384 42.225C274.634 43.875 275.259 46.05 275.259 48.75C275.259 51.2 274.534 53.35 273.084 55.2C271.634 57 269.759 58.375 267.459 59.325C265.209 60.275 262.884 60.75 260.484 60.75C257.184 60.75 254.109 60.2 251.259 59.1C248.409 58 246.084 56.225 244.284 53.775Z" fill="#FDD154"/>
</svg>
