<svg width="250" height="252" viewBox="0 0 250 252" fill="none" xmlns="http://www.w3.org/2000/svg">
<g filter="url(#filter0_d_591_68)">
<path d="M97.2765 115.012C101.915 108.754 105.309 99.6173 107.832 89.9185C94.4452 101.773 73.2605 105.494 64.5925 107.014C63.0932 107.281 62.0959 107.455 61.373 107.636C60.9697 107.741 60.6126 107.976 60.3576 108.306C60.1027 108.635 59.9644 109.04 59.9644 109.457C59.9644 109.873 60.1027 110.278 60.3576 110.608C60.6126 110.937 60.9697 111.173 61.373 111.277C62.0423 111.451 62.9593 111.605 64.2846 111.839C70.3087 112.904 81.9419 114.959 92.9794 119.818C94.5487 118.344 95.9865 116.736 97.2765 115.012Z" fill="#EFEFEF"/>
<path d="M136.231 165.742C132.985 170.119 130.348 175.922 128.199 182.315C129.35 190.22 130.013 197.04 130.408 201.11C130.616 203.245 130.736 204.523 130.857 205.347C131.111 207.194 134.317 207.194 134.578 205.347C134.692 204.477 134.832 203.058 135.02 201.103C135.763 193.439 137.45 175.996 141.626 159.918C139.63 161.666 137.822 163.618 136.231 165.742Z" fill="#EFEFEF"/>
<path d="M204.05 107.649C203.333 107.475 202.336 107.301 200.83 107.034C190.877 105.293 164.445 100.641 152.196 84.1086C139.819 67.3751 136.205 30.086 135.02 17.8437C134.833 15.8892 134.692 14.497 134.579 13.6067C134.513 13.1602 134.289 12.7522 133.947 12.4573C133.605 12.1623 133.169 12 132.718 12C132.266 12 131.83 12.1623 131.488 12.4573C131.147 12.7522 130.923 13.1602 130.857 13.6067C130.736 14.4233 130.616 15.6817 130.449 17.4019C129.545 26.7727 127.336 49.5304 121.272 67.5558C123.608 83.5062 127.965 103.888 136.232 115.079C141.285 121.9 148.748 126.692 156.473 130.092C169.786 117.449 191.901 113.54 200.81 111.96C202.477 111.672 203.374 111.518 204.036 111.344C204.444 111.245 204.808 111.012 205.067 110.682C205.327 110.352 205.468 109.944 205.469 109.524C205.478 109.097 205.343 108.68 205.085 108.34C204.827 108 204.463 107.756 204.05 107.649V107.649Z" fill="#EFEFEF"/>
<path d="M113.233 84.0819C116.479 79.7044 119.116 73.9012 121.265 67.5022C120.114 59.5973 119.451 52.7767 119.056 48.7138C118.862 46.7593 118.728 45.3671 118.608 44.4702C118.542 44.0236 118.318 43.6157 117.976 43.3207C117.634 43.0257 117.198 42.8634 116.747 42.8634C116.295 42.8634 115.859 43.0257 115.518 43.3207C115.176 43.6157 114.952 44.0236 114.886 44.4702C114.772 45.2934 114.652 46.5518 114.484 48.272C113.715 56.2171 112.015 73.7807 107.791 89.9118C109.809 88.1694 111.633 86.2148 113.233 84.0819V84.0819Z" fill="#EFEFEF"/>
<path d="M92.9855 119.811C79.6589 132.475 57.5438 136.371 48.6349 137.93C47.1356 138.198 46.1382 138.372 45.4086 138.553C45.0054 138.658 44.6482 138.893 44.3933 139.223C44.1383 139.552 44 139.957 44 140.374C44 140.79 44.1383 141.195 44.3933 141.525C44.6482 141.854 45.0054 142.09 45.4086 142.194C46.078 142.368 46.9883 142.522 48.3136 142.756C58.6014 144.57 85.0337 149.236 97.2626 165.742C109.639 182.435 113.253 219.764 114.438 232.007C114.639 234.135 114.766 235.414 114.88 236.244C115.141 238.091 118.34 238.091 118.601 236.244C118.722 235.367 118.862 233.954 119.05 232C119.927 222.95 122.129 200.266 128.186 182.288C125.85 166.337 121.493 145.956 113.22 134.764C108.193 128.011 100.73 123.225 92.9855 119.811Z" fill="#EFEFEF"/>
<path d="M152.196 134.818C147.551 141.083 144.164 150.253 141.627 159.918C155.014 148.084 176.185 144.343 184.853 142.81C186.52 142.522 187.41 142.368 188.079 142.194C188.486 142.092 188.846 141.857 189.104 141.527C189.361 141.196 189.501 140.789 189.501 140.37C189.501 139.951 189.361 139.544 189.104 139.214C188.846 138.884 188.486 138.649 188.079 138.546C187.363 138.372 186.366 138.198 184.86 137.931C179.01 136.906 167.457 134.872 156.46 130.019C154.903 131.493 153.477 133.099 152.196 134.818Z" fill="#EFEFEF"/>
</g>
<defs>
<filter id="filter0_d_591_68" x="42" y="12" width="165.469" height="239.629" filterUnits="userSpaceOnUse" color-interpolation-filters="sRGB">
<feFlood flood-opacity="0" result="BackgroundImageFix"/>
<feColorMatrix in="SourceAlpha" type="matrix" values="0 0 0 0 0 0 0 0 0 0 0 0 0 0 0 0 0 0 127 0" result="hardAlpha"/>
<feOffset dy="12"/>
<feGaussianBlur stdDeviation="1"/>
<feComposite in2="hardAlpha" operator="out"/>
<feColorMatrix type="matrix" values="0 0 0 0 0.937255 0 0 0 0 0.937255 0 0 0 0 0.937255 0 0 0 0.25 0"/>
<feBlend mode="normal" in2="BackgroundImageFix" result="effect1_dropShadow_591_68"/>
<feBlend mode="normal" in="SourceGraphic" in2="effect1_dropShadow_591_68" result="shape"/>
</filter>
</defs>
</svg>
